<svg width="53" height="51" viewBox="0 0 53 51" fill="none" xmlns="http://www.w3.org/2000/svg">
<path d="M0 10.0906C0 8.35002 1.69174 6.94376 3.78571 6.94376H49.2143C51.3083 6.94376 53 8.35002 53 10.0906C53 11.8312 51.3083 13.2375 49.2143 13.2375H3.78571C1.69174 13.2375 0 11.8312 0 10.0906ZM0 25.825C0 24.0844 1.69174 22.6781 3.78571 22.6781H49.2143C51.3083 22.6781 53 24.0844 53 25.825C53 27.5656 51.3083 28.9719 49.2143 28.9719H3.78571C1.69174 28.9719 0 27.5656 0 25.825ZM53 41.5594C53 43.3 51.3083 44.7063 49.2143 44.7063H3.78571C1.69174 44.7063 0 43.3 0 41.5594C0 39.8188 1.69174 38.4125 3.78571 38.4125H49.2143C51.3083 38.4125 53 39.8188 53 41.5594Z" fill="#EFF5F5"/>
</svg>
