<svg width="356" height="49" viewBox="0 0 356 49" fill="none" xmlns="http://www.w3.org/2000/svg">
<path d="M43.6768 1.376L37.9168 48H32.4768C31.6661 48 31.0048 47.872 30.4928 47.616C30.0021 47.3387 29.5328 46.8907 29.0848 46.272L12.7968 17.472C12.7328 18.7093 12.6368 19.8187 12.5088 20.8L9.30875 48H0.0927532L5.85275 1.376H11.3568C11.8048 1.376 12.1781 1.39733 12.4768 1.44C12.7968 1.46133 13.0741 1.536 13.3088 1.664C13.5434 1.77066 13.7568 1.93066 13.9488 2.144C14.1408 2.35733 14.3434 2.63466 14.5568 2.976L30.9088 31.776C30.9728 31.0293 31.0368 30.3147 31.1008 29.632C31.1648 28.9493 31.2394 28.3093 31.3248 27.712L34.4608 1.376H43.6768ZM62.7463 21.056C61.1036 21.056 59.6636 21.7173 58.4263 23.04C57.1889 24.3413 56.2716 26.1333 55.6743 28.416C57.7223 28.096 59.3863 27.7547 60.6663 27.392C61.9463 27.0293 62.9383 26.6453 63.6423 26.24C64.3463 25.8133 64.8156 25.3653 65.0503 24.896C65.3063 24.4267 65.4343 23.9147 65.4343 23.36C65.4343 22.8053 65.2209 22.2827 64.7943 21.792C64.3676 21.3013 63.6849 21.056 62.7463 21.056ZM73.6903 41.856C72.5169 43.008 71.3649 44.0107 70.2343 44.864C69.1249 45.696 67.9729 46.3893 66.7783 46.944C65.6049 47.4773 64.3463 47.872 63.0023 48.128C61.6796 48.384 60.2289 48.512 58.6503 48.512C56.6876 48.512 54.8849 48.1813 53.2423 47.52C51.5996 46.8373 50.1809 45.888 48.9863 44.672C47.8129 43.4347 46.8956 41.952 46.2343 40.224C45.5943 38.496 45.2743 36.576 45.2743 34.464C45.2743 32.6933 45.4663 30.9653 45.8503 29.28C46.2556 27.5947 46.8209 26.016 47.5463 24.544C48.2929 23.0507 49.1996 21.6853 50.2663 20.448C51.3329 19.1893 52.5276 18.112 53.8503 17.216C55.1943 16.32 56.6556 15.6267 58.2343 15.136C59.8343 14.624 61.5303 14.368 63.3223 14.368C65.0929 14.368 66.6609 14.624 68.0263 15.136C69.4129 15.648 70.5756 16.32 71.5143 17.152C72.4529 17.9627 73.1676 18.88 73.6583 19.904C74.1489 20.928 74.3943 21.952 74.3943 22.976C74.3943 24.4907 74.0956 25.8773 73.4983 27.136C72.9009 28.3733 71.8556 29.4827 70.3623 30.464C68.8903 31.4453 66.8956 32.2773 64.3783 32.96C61.8823 33.6427 58.7356 34.176 54.9383 34.56C54.9809 36.8213 55.4716 38.4747 56.4103 39.52C57.3703 40.5653 58.7783 41.088 60.6343 41.088C61.5089 41.088 62.2663 41.0133 62.9063 40.864C63.5463 40.7147 64.1009 40.5227 64.5703 40.288C65.0609 40.0533 65.4983 39.808 65.8823 39.552C66.2663 39.296 66.6289 39.0507 66.9703 38.816C67.3329 38.5813 67.7063 38.3893 68.0903 38.24C68.4743 38.0907 68.9116 38.016 69.4023 38.016C69.7223 38.016 70.0316 38.1013 70.3303 38.272C70.6289 38.4213 70.8956 38.624 71.1303 38.88L73.6903 41.856ZM95.0113 21.056C93.3686 21.056 91.9286 21.7173 90.6913 23.04C89.4539 24.3413 88.5366 26.1333 87.9393 28.416C89.9873 28.096 91.6513 27.7547 92.9313 27.392C94.2113 27.0293 95.2033 26.6453 95.9073 26.24C96.6113 25.8133 97.0806 25.3653 97.3153 24.896C97.5713 24.4267 97.6993 23.9147 97.6993 23.36C97.6993 22.8053 97.4859 22.2827 97.0593 21.792C96.6326 21.3013 95.9499 21.056 95.0113 21.056ZM105.955 41.856C104.782 43.008 103.63 44.0107 102.499 44.864C101.39 45.696 100.238 46.3893 99.0433 46.944C97.8699 47.4773 96.6113 47.872 95.2673 48.128C93.9446 48.384 92.4939 48.512 90.9153 48.512C88.9526 48.512 87.1499 48.1813 85.5073 47.52C83.8646 46.8373 82.4459 45.888 81.2513 44.672C80.0779 43.4347 79.1606 41.952 78.4993 40.224C77.8593 38.496 77.5393 36.576 77.5393 34.464C77.5393 32.6933 77.7313 30.9653 78.1153 29.28C78.5206 27.5947 79.0859 26.016 79.8113 24.544C80.5579 23.0507 81.4646 21.6853 82.5313 20.448C83.5979 19.1893 84.7926 18.112 86.1153 17.216C87.4593 16.32 88.9206 15.6267 90.4993 15.136C92.0993 14.624 93.7953 14.368 95.5873 14.368C97.3579 14.368 98.9259 14.624 100.291 15.136C101.678 15.648 102.841 16.32 103.779 17.152C104.718 17.9627 105.433 18.88 105.923 19.904C106.414 20.928 106.659 21.952 106.659 22.976C106.659 24.4907 106.361 25.8773 105.763 27.136C105.166 28.3733 104.121 29.4827 102.627 30.464C101.155 31.4453 99.1606 32.2773 96.6433 32.96C94.1473 33.6427 91.0006 34.176 87.2033 34.56C87.2459 36.8213 87.7366 38.4747 88.6753 39.52C89.6353 40.5653 91.0433 41.088 92.8993 41.088C93.7739 41.088 94.5313 41.0133 95.1713 40.864C95.8113 40.7147 96.3659 40.5227 96.8353 40.288C97.3259 40.0533 97.7633 39.808 98.1473 39.552C98.5313 39.296 98.8939 39.0507 99.2353 38.816C99.5979 38.5813 99.9713 38.3893 100.355 38.24C100.739 38.0907 101.177 38.016 101.667 38.016C101.987 38.016 102.297 38.1013 102.595 38.272C102.894 38.4213 103.161 38.624 103.395 38.88L105.955 41.856ZM131.788 22.976C131.17 22.464 130.476 22.112 129.708 21.92C128.962 21.7067 128.247 21.6 127.564 21.6C126.412 21.6 125.346 21.984 124.364 22.752C123.404 23.52 122.572 24.5333 121.868 25.792C121.164 27.0293 120.61 28.448 120.204 30.048C119.82 31.648 119.628 33.28 119.628 34.944C119.628 37.056 119.938 38.592 120.556 39.552C121.175 40.4907 121.996 40.96 123.02 40.96C123.703 40.96 124.407 40.704 125.132 40.192C125.879 39.68 126.594 38.976 127.276 38.08C127.98 37.184 128.631 36.1387 129.228 34.944C129.847 33.728 130.37 32.4267 130.796 31.04L131.788 22.976ZM144.396 0.0959969L138.444 48H133.132C132.514 48 131.991 47.9253 131.564 47.776C131.159 47.6053 130.828 47.3813 130.572 47.104C130.338 46.8267 130.167 46.496 130.06 46.112C129.975 45.728 129.932 45.312 129.932 44.864V42.08C128.418 44.0853 126.743 45.664 124.908 46.816C123.074 47.9467 121.122 48.512 119.052 48.512C117.687 48.512 116.439 48.2773 115.308 47.808C114.178 47.3173 113.196 46.56 112.364 45.536C111.554 44.512 110.914 43.2107 110.444 41.632C109.996 40.032 109.772 38.1227 109.772 35.904C109.772 33.984 109.975 32.1173 110.38 30.304C110.786 28.4693 111.351 26.752 112.076 25.152C112.802 23.552 113.666 22.0907 114.668 20.768C115.671 19.424 116.77 18.2827 117.964 17.344C119.18 16.384 120.46 15.6373 121.804 15.104C123.148 14.5707 124.535 14.304 125.964 14.304C127.351 14.304 128.588 14.528 129.676 14.976C130.764 15.424 131.724 16.032 132.556 16.8L134.668 0.0959969H144.396ZM163.104 21.056C161.461 21.056 160.021 21.7173 158.784 23.04C157.546 24.3413 156.629 26.1333 156.032 28.416C158.08 28.096 159.744 27.7547 161.024 27.392C162.304 27.0293 163.296 26.6453 164 26.24C164.704 25.8133 165.173 25.3653 165.408 24.896C165.664 24.4267 165.792 23.9147 165.792 23.36C165.792 22.8053 165.578 22.2827 165.152 21.792C164.725 21.3013 164.042 21.056 163.104 21.056ZM174.048 41.856C172.874 43.008 171.722 44.0107 170.592 44.864C169.482 45.696 168.33 46.3893 167.136 46.944C165.962 47.4773 164.704 47.872 163.36 48.128C162.037 48.384 160.586 48.512 159.008 48.512C157.045 48.512 155.242 48.1813 153.6 47.52C151.957 46.8373 150.538 45.888 149.344 44.672C148.17 43.4347 147.253 41.952 146.592 40.224C145.952 38.496 145.632 36.576 145.632 34.464C145.632 32.6933 145.824 30.9653 146.208 29.28C146.613 27.5947 147.178 26.016 147.904 24.544C148.65 23.0507 149.557 21.6853 150.624 20.448C151.69 19.1893 152.885 18.112 154.208 17.216C155.552 16.32 157.013 15.6267 158.592 15.136C160.192 14.624 161.888 14.368 163.68 14.368C165.45 14.368 167.018 14.624 168.384 15.136C169.77 15.648 170.933 16.32 171.872 17.152C172.81 17.9627 173.525 18.88 174.016 19.904C174.506 20.928 174.752 21.952 174.752 22.976C174.752 24.4907 174.453 25.8773 173.856 27.136C173.258 28.3733 172.213 29.4827 170.72 30.464C169.248 31.4453 167.253 32.2773 164.736 32.96C162.24 33.6427 159.093 34.176 155.296 34.56C155.338 36.8213 155.829 38.4747 156.768 39.52C157.728 40.5653 159.136 41.088 160.992 41.088C161.866 41.088 162.624 41.0133 163.264 40.864C163.904 40.7147 164.458 40.5227 164.928 40.288C165.418 40.0533 165.856 39.808 166.24 39.552C166.624 39.296 166.986 39.0507 167.328 38.816C167.69 38.5813 168.064 38.3893 168.448 38.24C168.832 38.0907 169.269 38.016 169.76 38.016C170.08 38.016 170.389 38.1013 170.688 38.272C170.986 38.4213 171.253 38.624 171.488 38.88L174.048 41.856ZM199.881 22.976C199.262 22.464 198.569 22.112 197.801 21.92C197.054 21.7067 196.339 21.6 195.657 21.6C194.505 21.6 193.438 21.984 192.457 22.752C191.497 23.52 190.665 24.5333 189.961 25.792C189.257 27.0293 188.702 28.448 188.297 30.048C187.913 31.648 187.721 33.28 187.721 34.944C187.721 37.056 188.03 38.592 188.649 39.552C189.267 40.4907 190.089 40.96 191.113 40.96C191.795 40.96 192.499 40.704 193.225 40.192C193.971 39.68 194.686 38.976 195.369 38.08C196.073 37.184 196.723 36.1387 197.321 34.944C197.939 33.728 198.462 32.4267 198.889 31.04L199.881 22.976ZM212.489 0.0959969L206.537 48H201.225C200.606 48 200.083 47.9253 199.657 47.776C199.251 47.6053 198.921 47.3813 198.665 47.104C198.43 46.8267 198.259 46.496 198.153 46.112C198.067 45.728 198.025 45.312 198.025 44.864V42.08C196.51 44.0853 194.835 45.664 193.001 46.816C191.166 47.9467 189.214 48.512 187.145 48.512C185.779 48.512 184.531 48.2773 183.401 47.808C182.27 47.3173 181.289 46.56 180.457 45.536C179.646 44.512 179.006 43.2107 178.537 41.632C178.089 40.032 177.865 38.1227 177.865 35.904C177.865 33.984 178.067 32.1173 178.473 30.304C178.878 28.4693 179.443 26.752 180.169 25.152C180.894 23.552 181.758 22.0907 182.761 20.768C183.763 19.424 184.862 18.2827 186.057 17.344C187.273 16.384 188.553 15.6373 189.897 15.104C191.241 14.5707 192.627 14.304 194.057 14.304C195.443 14.304 196.681 14.528 197.769 14.976C198.857 15.424 199.817 16.032 200.649 16.8L202.761 0.0959969H212.489ZM213.212 42.976C213.212 42.208 213.351 41.4933 213.628 40.832C213.927 40.1707 214.322 39.5947 214.812 39.104C215.324 38.6133 215.922 38.2293 216.604 37.952C217.287 37.6533 218.034 37.504 218.844 37.504C219.634 37.504 220.37 37.6533 221.052 37.952C221.735 38.2293 222.332 38.6133 222.844 39.104C223.356 39.5947 223.751 40.1707 224.028 40.832C224.327 41.4933 224.476 42.208 224.476 42.976C224.476 43.744 224.327 44.4693 224.028 45.152C223.751 45.8133 223.356 46.3893 222.844 46.88C222.332 47.3707 221.735 47.7547 221.052 48.032C220.37 48.3093 219.634 48.448 218.844 48.448C218.034 48.448 217.287 48.3093 216.604 48.032C215.922 47.7547 215.324 47.3707 214.812 46.88C214.322 46.3893 213.927 45.8133 213.628 45.152C213.351 44.4693 213.212 43.744 213.212 42.976ZM269.647 42.176C268.58 43.3493 267.556 44.3413 266.575 45.152C265.593 45.9627 264.58 46.6133 263.535 47.104C262.489 47.5947 261.369 47.9467 260.175 48.16C259.001 48.3947 257.7 48.512 256.271 48.512C254.329 48.512 252.58 48.1813 251.023 47.52C249.465 46.8587 248.132 45.92 247.023 44.704C245.935 43.488 245.092 42.016 244.495 40.288C243.897 38.56 243.599 36.6187 243.599 34.464C243.599 31.7547 244.036 29.184 244.911 26.752C245.807 24.32 247.044 22.1867 248.623 20.352C250.223 18.5173 252.111 17.0667 254.287 16C256.463 14.912 258.852 14.368 261.455 14.368C263.673 14.368 265.572 14.752 267.151 15.52C268.751 16.2667 270.18 17.4507 271.439 19.072L268.239 22.752C268.004 22.9867 267.737 23.2 267.439 23.392C267.14 23.5627 266.809 23.648 266.447 23.648C266.02 23.648 265.657 23.5627 265.359 23.392C265.081 23.2 264.772 23.008 264.431 22.816C264.089 22.6027 263.673 22.4107 263.183 22.24C262.692 22.048 262.052 21.952 261.263 21.952C260.281 21.952 259.321 22.24 258.383 22.816C257.465 23.3707 256.644 24.1813 255.919 25.248C255.193 26.3147 254.607 27.6267 254.159 29.184C253.732 30.7413 253.519 32.512 253.519 34.496C253.519 35.6053 253.647 36.576 253.903 37.408C254.159 38.2187 254.511 38.9013 254.959 39.456C255.407 39.9893 255.929 40.3947 256.527 40.672C257.124 40.9493 257.764 41.088 258.447 41.088C259.471 41.088 260.292 40.9493 260.911 40.672C261.551 40.3733 262.105 40.0533 262.575 39.712C263.044 39.3707 263.481 39.0613 263.887 38.784C264.292 38.4853 264.783 38.336 265.359 38.336C265.679 38.336 265.988 38.4213 266.287 38.592C266.585 38.7413 266.852 38.9333 267.087 39.168L269.647 42.176ZM287.256 41.152C288.366 41.152 289.358 40.8213 290.232 40.16C291.107 39.4773 291.843 38.56 292.44 37.408C293.059 36.2347 293.528 34.88 293.848 33.344C294.19 31.7867 294.36 30.1333 294.36 28.384C294.36 25.9733 294.03 24.256 293.368 23.232C292.728 22.1867 291.672 21.664 290.2 21.664C289.091 21.664 288.099 22.0053 287.224 22.688C286.35 23.3493 285.603 24.256 284.984 25.408C284.387 26.56 283.918 27.9147 283.576 29.472C283.256 31.0293 283.096 32.6827 283.096 34.432C283.096 36.8 283.416 38.5173 284.056 39.584C284.718 40.6293 285.784 41.152 287.256 41.152ZM286.36 48.512C284.504 48.512 282.766 48.2027 281.144 47.584C279.544 46.9653 278.147 46.0693 276.952 44.896C275.779 43.7013 274.851 42.24 274.168 40.512C273.507 38.7627 273.176 36.7573 273.176 34.496C273.176 31.552 273.656 28.8533 274.616 26.4C275.598 23.9253 276.91 21.792 278.552 20C280.195 18.208 282.094 16.8107 284.248 15.808C286.424 14.8053 288.707 14.304 291.096 14.304C292.952 14.304 294.68 14.6133 296.28 15.232C297.88 15.8507 299.267 16.7573 300.44 17.952C301.635 19.1253 302.574 20.5867 303.256 22.336C303.939 24.064 304.28 26.0587 304.28 28.32C304.28 31.2213 303.79 33.9093 302.808 36.384C301.848 38.8373 300.547 40.9707 298.904 42.784C297.262 44.576 295.352 45.984 293.176 47.008C291.022 48.0107 288.75 48.512 286.36 48.512ZM307.342 48L311.374 14.816H316.494C317.518 14.816 318.318 15.0613 318.894 15.552C319.47 16.0213 319.758 16.8 319.758 17.888V19.84C321.166 17.9627 322.649 16.576 324.206 15.68C325.764 14.7627 327.396 14.304 329.102 14.304C330.98 14.304 332.537 14.912 333.774 16.128C335.012 17.344 335.801 19.1147 336.142 21.44C337.614 18.9867 339.225 17.184 340.974 16.032C342.724 14.88 344.697 14.304 346.894 14.304C348.281 14.304 349.529 14.5813 350.638 15.136C351.748 15.6907 352.665 16.5013 353.39 17.568C354.116 18.6347 354.617 19.9573 354.894 21.536C355.193 23.0933 355.214 24.8853 354.958 26.912L352.462 48H342.67L345.166 26.912C345.273 26.016 345.305 25.2587 345.262 24.64C345.241 24.0213 345.145 23.5307 344.974 23.168C344.825 22.8053 344.601 22.5493 344.302 22.4C344.004 22.2293 343.652 22.144 343.246 22.144C342.585 22.144 341.945 22.3253 341.326 22.688C340.729 23.0293 340.153 23.5413 339.598 24.224C339.065 24.8853 338.574 25.696 338.126 26.656C337.678 27.5947 337.284 28.6507 336.942 29.824L334.798 48H325.006L327.502 26.912C327.609 26.016 327.641 25.2587 327.598 24.64C327.577 24.0213 327.481 23.5307 327.31 23.168C327.161 22.8053 326.937 22.5493 326.638 22.4C326.34 22.2293 325.988 22.144 325.582 22.144C324.921 22.144 324.281 22.3253 323.662 22.688C323.044 23.0507 322.457 23.5733 321.902 24.256C321.369 24.9387 320.878 25.7707 320.43 26.752C319.982 27.712 319.588 28.7893 319.246 29.984L317.07 48H307.342Z" fill="#EFF5F5"/>
</svg>
