<svg width="122" height="47" viewBox="0 0 122 47" fill="none" xmlns="http://www.w3.org/2000/svg">
<path d="M18.3713 14.03C18.1553 14.306 17.9453 14.516 17.7413 14.66C17.5373 14.792 17.2913 14.858 17.0033 14.858C16.7273 14.858 16.4513 14.768 16.1753 14.588C15.8993 14.408 15.5873 14.21 15.2393 13.994C14.9033 13.778 14.5133 13.58 14.0693 13.4C13.6253 13.22 13.1033 13.13 12.5033 13.13C11.9513 13.13 11.4653 13.208 11.0453 13.364C10.6373 13.52 10.2953 13.736 10.0193 14.012C9.7433 14.288 9.5333 14.612 9.3893 14.984C9.2573 15.356 9.1913 15.764 9.1913 16.208C9.1913 16.688 9.3233 17.09 9.5873 17.414C9.8633 17.738 10.2233 18.026 10.6673 18.278C11.1233 18.518 11.6333 18.74 12.1973 18.944C12.7613 19.148 13.3373 19.37 13.9253 19.61C14.5253 19.85 15.1073 20.126 15.6713 20.438C16.2473 20.75 16.7573 21.14 17.2013 21.608C17.6573 22.076 18.0173 22.64 18.2813 23.3C18.5573 23.96 18.6953 24.752 18.6953 25.676C18.6953 26.996 18.4673 28.238 18.0113 29.402C17.5553 30.566 16.9013 31.586 16.0493 32.462C15.1973 33.326 14.1593 34.016 12.9353 34.532C11.7233 35.036 10.3553 35.288 8.8313 35.288C8.0753 35.288 7.3133 35.204 6.5453 35.036C5.7893 34.868 5.0573 34.634 4.3493 34.334C3.6533 34.022 3.0053 33.656 2.4053 33.236C1.8053 32.816 1.2953 32.348 0.875295 31.832L2.9633 29.096C3.1313 28.892 3.3353 28.724 3.5753 28.592C3.8273 28.46 4.0793 28.394 4.3313 28.394C4.6673 28.394 4.9913 28.514 5.3033 28.754C5.6273 28.982 5.9813 29.24 6.3653 29.528C6.7493 29.804 7.1933 30.062 7.6973 30.302C8.2133 30.53 8.8433 30.644 9.5873 30.644C10.6793 30.644 11.5193 30.35 12.1073 29.762C12.7073 29.162 13.0073 28.28 13.0073 27.116C13.0073 26.576 12.8693 26.132 12.5933 25.784C12.3293 25.436 11.9753 25.142 11.5313 24.902C11.0993 24.662 10.6013 24.452 10.0373 24.272C9.4733 24.08 8.8973 23.876 8.3093 23.66C7.7213 23.444 7.1453 23.192 6.5813 22.904C6.0173 22.604 5.5133 22.22 5.0693 21.752C4.6373 21.272 4.2833 20.69 4.0073 20.006C3.7433 19.31 3.6113 18.458 3.6113 17.45C3.6113 16.286 3.8273 15.17 4.2593 14.102C4.7033 13.022 5.3333 12.068 6.1493 11.24C6.9653 10.412 7.9553 9.752 9.1193 9.26C10.2833 8.768 11.5913 8.522 13.0433 8.522C13.7873 8.522 14.5073 8.6 15.2033 8.756C15.9113 8.912 16.5713 9.128 17.1833 9.404C17.7953 9.68 18.3533 10.01 18.8573 10.394C19.3613 10.766 19.7873 11.174 20.1353 11.618L18.3713 14.03ZM28.719 16.334L26.487 35H20.979L23.211 16.334H28.719ZM29.763 11.222C29.763 11.666 29.667 12.086 29.475 12.482C29.283 12.866 29.031 13.208 28.719 13.508C28.407 13.796 28.047 14.03 27.639 14.21C27.243 14.378 26.835 14.462 26.415 14.462C25.995 14.462 25.593 14.378 25.209 14.21C24.825 14.03 24.483 13.796 24.183 13.508C23.895 13.208 23.661 12.866 23.481 12.482C23.301 12.086 23.211 11.666 23.211 11.222C23.211 10.778 23.301 10.358 23.481 9.962C23.661 9.566 23.901 9.218 24.201 8.918C24.513 8.618 24.861 8.384 25.245 8.216C25.629 8.036 26.031 7.946 26.451 7.946C26.883 7.946 27.297 8.03 27.693 8.198C28.089 8.366 28.437 8.6 28.737 8.9C29.049 9.2 29.295 9.548 29.475 9.944C29.667 10.34 29.763 10.766 29.763 11.222ZM37.0635 37.7C37.6155 37.7 38.1255 37.628 38.5935 37.484C39.0615 37.34 39.4575 37.136 39.7815 36.872C40.1175 36.62 40.3755 36.314 40.5555 35.954C40.7475 35.594 40.8435 35.192 40.8435 34.748C40.8435 34.676 40.8435 34.604 40.8435 34.532C40.8435 34.46 40.8375 34.394 40.8255 34.334C39.6015 34.13 38.5575 34.034 37.6935 34.046C36.8415 34.058 36.1515 34.148 35.6235 34.316C35.0955 34.472 34.7115 34.688 34.4715 34.964C34.2315 35.228 34.1115 35.522 34.1115 35.846C34.1115 36.458 34.3335 36.92 34.7775 37.232C35.2335 37.544 35.9955 37.7 37.0635 37.7ZM38.6115 25.982C39.0555 25.982 39.4395 25.868 39.7635 25.64C40.0995 25.412 40.3755 25.118 40.5915 24.758C40.8075 24.386 40.9695 23.972 41.0775 23.516C41.1975 23.06 41.2635 22.598 41.2755 22.13C41.2755 21.35 41.1135 20.744 40.7895 20.312C40.4655 19.88 39.9675 19.664 39.2955 19.664C38.8515 19.664 38.4615 19.772 38.1255 19.988C37.8015 20.192 37.5315 20.468 37.3155 20.816C37.0995 21.164 36.9375 21.566 36.8295 22.022C36.7215 22.478 36.6675 22.952 36.6675 23.444C36.6675 24.236 36.8295 24.86 37.1535 25.316C37.4775 25.76 37.9635 25.982 38.6115 25.982ZM49.1595 17.018L48.9075 18.764C48.7995 19.448 48.4515 19.91 47.8635 20.15L46.2795 20.69C46.3515 21.074 46.3875 21.482 46.3875 21.914C46.3875 22.682 46.2795 23.336 46.0635 23.876C45.8595 24.416 45.6315 24.926 45.3795 25.406C45.1275 25.886 44.8935 26.378 44.6775 26.882C44.4735 27.386 44.3715 27.98 44.3715 28.664C44.3715 29.156 44.4495 29.612 44.6055 30.032C44.7735 30.44 44.9535 30.86 45.1455 31.292C45.3375 31.724 45.5115 32.18 45.6675 32.66C45.8355 33.14 45.9195 33.692 45.9195 34.316C45.9075 35.276 45.6915 36.182 45.2715 37.034C44.8515 37.898 44.2455 38.648 43.4535 39.284C42.6615 39.932 41.6895 40.442 40.5375 40.814C39.3855 41.198 38.0715 41.39 36.5955 41.39C35.3835 41.39 34.2975 41.264 33.3375 41.012C32.3775 40.76 31.5615 40.418 30.8895 39.986C30.2295 39.554 29.7195 39.038 29.3595 38.438C28.9995 37.85 28.8195 37.214 28.8195 36.53C28.8195 35.63 29.0175 34.856 29.4135 34.208C29.8095 33.56 30.3315 33.026 30.9795 32.606C31.6275 32.174 32.3655 31.844 33.1935 31.616C34.0215 31.376 34.8675 31.214 35.7315 31.13C36.5955 31.034 37.4355 31.01 38.2515 31.058C39.0675 31.094 39.7935 31.172 40.4295 31.292C40.3935 31.004 40.3755 30.704 40.3755 30.392C40.3755 29.732 40.5375 29.006 40.8615 28.214C40.4055 28.526 39.8715 28.772 39.2595 28.952C38.6475 29.132 37.8915 29.222 36.9915 29.222C36.2835 29.222 35.6055 29.108 34.9575 28.88C34.3095 28.64 33.7335 28.28 33.2295 27.8C32.7375 27.32 32.3415 26.72 32.0415 26C31.7415 25.268 31.5915 24.404 31.5915 23.408C31.5915 22.484 31.7655 21.584 32.1135 20.708C32.4735 19.82 33.0015 19.034 33.6975 18.35C34.4055 17.654 35.2755 17.096 36.3075 16.676C37.3515 16.256 38.5635 16.046 39.9435 16.046C40.6635 16.046 41.3475 16.13 41.9955 16.298C42.6435 16.454 43.2435 16.694 43.7955 17.018H49.1595ZM56.4874 19.556C57.3874 18.356 58.3714 17.474 59.4394 16.91C60.5074 16.334 61.6114 16.046 62.7514 16.046C63.5194 16.046 64.2214 16.202 64.8574 16.514C65.5054 16.826 66.0394 17.282 66.4594 17.882C66.8914 18.482 67.1974 19.226 67.3774 20.114C67.5574 20.99 67.5754 21.998 67.4314 23.138L66.0274 35H60.4474L61.8514 23.138C61.9114 22.634 61.9294 22.208 61.9054 21.86C61.8934 21.512 61.8334 21.236 61.7254 21.032C61.6174 20.828 61.4674 20.684 61.2754 20.6C61.0834 20.504 60.8554 20.456 60.5914 20.456C60.1834 20.456 59.7574 20.582 59.3134 20.834C58.8694 21.086 58.4434 21.446 58.0354 21.914C57.6394 22.37 57.2734 22.928 56.9374 23.588C56.6014 24.236 56.3374 24.956 56.1454 25.748L55.1194 35H49.5394L51.7714 16.334H54.6514C55.2274 16.334 55.6774 16.472 56.0014 16.748C56.3254 17.012 56.4874 17.45 56.4874 18.062V19.556ZM88.8455 30.392C89.5775 30.392 90.2435 30.254 90.8435 29.978C91.4555 29.69 91.9895 29.288 92.4455 28.772C92.9015 28.244 93.2735 27.608 93.5615 26.864C93.8615 26.12 94.0655 25.286 94.1735 24.362L96.0815 8.774H101.95L100.042 24.362C99.8375 25.958 99.4115 27.428 98.7635 28.772C98.1275 30.104 97.2935 31.256 96.2615 32.228C95.2415 33.188 94.0535 33.938 92.6975 34.478C91.3415 35.018 89.8535 35.288 88.2335 35.288C86.6135 35.288 85.1915 35.018 83.9675 34.478C82.7435 33.938 81.7355 33.188 80.9435 32.228C80.1635 31.256 79.6115 30.104 79.2875 28.772C78.9755 27.428 78.9215 25.958 79.1255 24.362L80.9975 8.774H86.8655L84.9575 24.362C84.8495 25.286 84.8555 26.12 84.9755 26.864C85.0955 27.608 85.3175 28.244 85.6415 28.772C85.9775 29.288 86.4095 29.69 86.9375 29.978C87.4775 30.254 88.1135 30.392 88.8455 30.392ZM108.469 30.41C108.817 30.686 109.201 30.884 109.621 31.004C110.053 31.124 110.461 31.184 110.845 31.184C111.493 31.184 112.087 30.968 112.627 30.536C113.179 30.104 113.653 29.54 114.049 28.844C114.445 28.136 114.751 27.332 114.967 26.432C115.195 25.532 115.309 24.614 115.309 23.678C115.309 22.49 115.135 21.626 114.787 21.086C114.439 20.546 113.977 20.276 113.401 20.276C113.017 20.276 112.615 20.426 112.195 20.726C111.787 21.014 111.385 21.41 110.989 21.914C110.605 22.418 110.239 23.012 109.891 23.696C109.555 24.38 109.267 25.112 109.027 25.892L108.469 30.41ZM109.441 19.754C110.305 18.602 111.253 17.696 112.285 17.036C113.329 16.376 114.445 16.046 115.633 16.046C116.401 16.046 117.103 16.184 117.739 16.46C118.375 16.724 118.921 17.144 119.377 17.72C119.845 18.296 120.205 19.034 120.457 19.934C120.721 20.822 120.853 21.884 120.853 23.12C120.853 24.752 120.601 26.306 120.097 27.782C119.605 29.246 118.939 30.536 118.099 31.652C117.259 32.768 116.287 33.656 115.183 34.316C114.091 34.964 112.945 35.288 111.745 35.288C110.977 35.288 110.281 35.162 109.657 34.91C109.045 34.658 108.505 34.322 108.037 33.902L107.173 40.922H101.737L104.725 16.334H107.605C108.181 16.334 108.631 16.472 108.955 16.748C109.279 17.012 109.441 17.45 109.441 18.062V19.754Z" fill="#6C6C6C"/>
<line x1="1" y1="46.2105" x2="116" y2="46.2105" stroke="#9D9A9A" stroke-width="1.57908"/>
</svg>
