<svg width="110" height="46" viewBox="0 0 110 46" fill="none" xmlns="http://www.w3.org/2000/svg">
<path d="M18.385 14.03C18.169 14.306 17.959 14.516 17.755 14.66C17.551 14.792 17.305 14.858 17.017 14.858C16.741 14.858 16.465 14.768 16.189 14.588C15.913 14.408 15.601 14.21 15.253 13.994C14.917 13.778 14.527 13.58 14.083 13.4C13.639 13.22 13.117 13.13 12.517 13.13C11.965 13.13 11.479 13.208 11.059 13.364C10.651 13.52 10.309 13.736 10.033 14.012C9.75697 14.288 9.54697 14.612 9.40297 14.984C9.27097 15.356 9.20497 15.764 9.20497 16.208C9.20497 16.688 9.33697 17.09 9.60097 17.414C9.87697 17.738 10.237 18.026 10.681 18.278C11.137 18.518 11.647 18.74 12.211 18.944C12.775 19.148 13.351 19.37 13.939 19.61C14.539 19.85 15.121 20.126 15.685 20.438C16.261 20.75 16.771 21.14 17.215 21.608C17.671 22.076 18.031 22.64 18.295 23.3C18.571 23.96 18.709 24.752 18.709 25.676C18.709 26.996 18.481 28.238 18.025 29.402C17.569 30.566 16.915 31.586 16.063 32.462C15.211 33.326 14.173 34.016 12.949 34.532C11.737 35.036 10.369 35.288 8.84497 35.288C8.08897 35.288 7.32697 35.204 6.55897 35.036C5.80297 34.868 5.07097 34.634 4.36297 34.334C3.66697 34.022 3.01897 33.656 2.41897 33.236C1.81897 32.816 1.30897 32.348 0.888967 31.832L2.97697 29.096C3.14497 28.892 3.34897 28.724 3.58897 28.592C3.84097 28.46 4.09297 28.394 4.34497 28.394C4.68097 28.394 5.00497 28.514 5.31697 28.754C5.64097 28.982 5.99497 29.24 6.37897 29.528C6.76297 29.804 7.20697 30.062 7.71097 30.302C8.22697 30.53 8.85697 30.644 9.60097 30.644C10.693 30.644 11.533 30.35 12.121 29.762C12.721 29.162 13.021 28.28 13.021 27.116C13.021 26.576 12.883 26.132 12.607 25.784C12.343 25.436 11.989 25.142 11.545 24.902C11.113 24.662 10.615 24.452 10.051 24.272C9.48697 24.08 8.91097 23.876 8.32297 23.66C7.73497 23.444 7.15897 23.192 6.59497 22.904C6.03097 22.604 5.52697 22.22 5.08297 21.752C4.65097 21.272 4.29697 20.69 4.02097 20.006C3.75697 19.31 3.62497 18.458 3.62497 17.45C3.62497 16.286 3.84097 15.17 4.27297 14.102C4.71697 13.022 5.34697 12.068 6.16297 11.24C6.97897 10.412 7.96897 9.752 9.13297 9.26C10.297 8.768 11.605 8.522 13.057 8.522C13.801 8.522 14.521 8.6 15.217 8.756C15.925 8.912 16.585 9.128 17.197 9.404C17.809 9.68 18.367 10.01 18.871 10.394C19.375 10.766 19.801 11.174 20.149 11.618L18.385 14.03ZM28.7327 16.334L26.5007 35H20.9927L23.2247 16.334H28.7327ZM29.7767 11.222C29.7767 11.666 29.6807 12.086 29.4887 12.482C29.2967 12.866 29.0447 13.208 28.7327 13.508C28.4207 13.796 28.0607 14.03 27.6527 14.21C27.2567 14.378 26.8487 14.462 26.4287 14.462C26.0087 14.462 25.6067 14.378 25.2227 14.21C24.8387 14.03 24.4967 13.796 24.1967 13.508C23.9087 13.208 23.6747 12.866 23.4947 12.482C23.3147 12.086 23.2247 11.666 23.2247 11.222C23.2247 10.778 23.3147 10.358 23.4947 9.962C23.6747 9.566 23.9147 9.218 24.2147 8.918C24.5267 8.618 24.8747 8.384 25.2587 8.216C25.6427 8.036 26.0447 7.946 26.4647 7.946C26.8967 7.946 27.3107 8.03 27.7067 8.198C28.1027 8.366 28.4507 8.6 28.7507 8.9C29.0627 9.2 29.3087 9.548 29.4887 9.944C29.6807 10.34 29.7767 10.766 29.7767 11.222ZM37.0771 37.7C37.6291 37.7 38.1391 37.628 38.6071 37.484C39.0751 37.34 39.4711 37.136 39.7951 36.872C40.1311 36.62 40.3891 36.314 40.5691 35.954C40.7611 35.594 40.8571 35.192 40.8571 34.748C40.8571 34.676 40.8571 34.604 40.8571 34.532C40.8571 34.46 40.8511 34.394 40.8391 34.334C39.6151 34.13 38.5711 34.034 37.7071 34.046C36.8551 34.058 36.1651 34.148 35.6371 34.316C35.1091 34.472 34.7251 34.688 34.4851 34.964C34.2451 35.228 34.1251 35.522 34.1251 35.846C34.1251 36.458 34.3471 36.92 34.7911 37.232C35.2471 37.544 36.0091 37.7 37.0771 37.7ZM38.6251 25.982C39.0691 25.982 39.4531 25.868 39.7771 25.64C40.1131 25.412 40.3891 25.118 40.6051 24.758C40.8211 24.386 40.9831 23.972 41.0911 23.516C41.2111 23.06 41.2771 22.598 41.2891 22.13C41.2891 21.35 41.1271 20.744 40.8031 20.312C40.4791 19.88 39.9811 19.664 39.3091 19.664C38.8651 19.664 38.4751 19.772 38.1391 19.988C37.8151 20.192 37.5451 20.468 37.3291 20.816C37.1131 21.164 36.9511 21.566 36.8431 22.022C36.7351 22.478 36.6811 22.952 36.6811 23.444C36.6811 24.236 36.8431 24.86 37.1671 25.316C37.4911 25.76 37.9771 25.982 38.6251 25.982ZM49.1731 17.018L48.9211 18.764C48.8131 19.448 48.4651 19.91 47.8771 20.15L46.2931 20.69C46.3651 21.074 46.4011 21.482 46.4011 21.914C46.4011 22.682 46.2931 23.336 46.0771 23.876C45.8731 24.416 45.6451 24.926 45.3931 25.406C45.1411 25.886 44.9071 26.378 44.6911 26.882C44.4871 27.386 44.3851 27.98 44.3851 28.664C44.3851 29.156 44.4631 29.612 44.6191 30.032C44.7871 30.44 44.9671 30.86 45.1591 31.292C45.3511 31.724 45.5251 32.18 45.6811 32.66C45.8491 33.14 45.9331 33.692 45.9331 34.316C45.9211 35.276 45.7051 36.182 45.2851 37.034C44.8651 37.898 44.2591 38.648 43.4671 39.284C42.6751 39.932 41.7031 40.442 40.5511 40.814C39.3991 41.198 38.0851 41.39 36.6091 41.39C35.3971 41.39 34.3111 41.264 33.3511 41.012C32.3911 40.76 31.5751 40.418 30.9031 39.986C30.2431 39.554 29.7331 39.038 29.3731 38.438C29.0131 37.85 28.8331 37.214 28.8331 36.53C28.8331 35.63 29.0311 34.856 29.4271 34.208C29.8231 33.56 30.3451 33.026 30.9931 32.606C31.6411 32.174 32.3791 31.844 33.2071 31.616C34.0351 31.376 34.8811 31.214 35.7451 31.13C36.6091 31.034 37.4491 31.01 38.2651 31.058C39.0811 31.094 39.8071 31.172 40.4431 31.292C40.4071 31.004 40.3891 30.704 40.3891 30.392C40.3891 29.732 40.5511 29.006 40.8751 28.214C40.4191 28.526 39.8851 28.772 39.2731 28.952C38.6611 29.132 37.9051 29.222 37.0051 29.222C36.2971 29.222 35.6191 29.108 34.9711 28.88C34.3231 28.64 33.7471 28.28 33.2431 27.8C32.7511 27.32 32.3551 26.72 32.0551 26C31.7551 25.268 31.6051 24.404 31.6051 23.408C31.6051 22.484 31.7791 21.584 32.1271 20.708C32.4871 19.82 33.0151 19.034 33.7111 18.35C34.4191 17.654 35.2891 17.096 36.3211 16.676C37.3651 16.256 38.5771 16.046 39.9571 16.046C40.6771 16.046 41.3611 16.13 42.0091 16.298C42.6571 16.454 43.2571 16.694 43.8091 17.018H49.1731ZM56.5011 19.556C57.4011 18.356 58.3851 17.474 59.4531 16.91C60.5211 16.334 61.6251 16.046 62.7651 16.046C63.5331 16.046 64.2351 16.202 64.8711 16.514C65.5191 16.826 66.0531 17.282 66.4731 17.882C66.9051 18.482 67.2111 19.226 67.3911 20.114C67.5711 20.99 67.5891 21.998 67.4451 23.138L66.0411 35H60.4611L61.8651 23.138C61.9251 22.634 61.9431 22.208 61.9191 21.86C61.9071 21.512 61.8471 21.236 61.7391 21.032C61.6311 20.828 61.4811 20.684 61.2891 20.6C61.0971 20.504 60.8691 20.456 60.6051 20.456C60.1971 20.456 59.7711 20.582 59.3271 20.834C58.8831 21.086 58.4571 21.446 58.0491 21.914C57.6531 22.37 57.2871 22.928 56.9511 23.588C56.6151 24.236 56.3511 24.956 56.1591 25.748L55.1331 35H49.5531L51.7851 16.334H54.6651C55.2411 16.334 55.6911 16.472 56.0151 16.748C56.3391 17.012 56.5011 17.45 56.5011 18.062V19.556ZM84.0172 35H78.1132L81.3172 8.774H87.2212L84.0172 35ZM95.3038 19.556C96.2038 18.356 97.1878 17.474 98.2558 16.91C99.3238 16.334 100.428 16.046 101.568 16.046C102.336 16.046 103.038 16.202 103.674 16.514C104.322 16.826 104.856 17.282 105.276 17.882C105.708 18.482 106.014 19.226 106.194 20.114C106.374 20.99 106.392 21.998 106.248 23.138L104.844 35H99.2638L100.668 23.138C100.728 22.634 100.746 22.208 100.722 21.86C100.71 21.512 100.65 21.236 100.542 21.032C100.434 20.828 100.284 20.684 100.092 20.6C99.8998 20.504 99.6718 20.456 99.4078 20.456C98.9998 20.456 98.5738 20.582 98.1298 20.834C97.6858 21.086 97.2598 21.446 96.8518 21.914C96.4558 22.37 96.0898 22.928 95.7538 23.588C95.4178 24.236 95.1538 24.956 94.9618 25.748L93.9358 35H88.3558L90.5878 16.334H93.4678C94.0438 16.334 94.4938 16.472 94.8178 16.748C95.1418 17.012 95.3038 17.45 95.3038 18.062V19.556Z" fill="#6C6C6C"/>
<path d="M1.5 45H109.5" stroke="#9D9A9A" stroke-width="1.57908"/>
</svg>
